<svg width="163" height="151" viewBox="0 0 163 151" fill="none" xmlns="http://www.w3.org/2000/svg">
<path d="M163 69.5C163 114.511 126.511 151 81.5 151C36.4888 151 0 114.511 0 69.5C0 24.4888 36.4888 -12 81.5 -12C126.511 -12 163 24.4888 163 69.5Z" fill="white"/>
<path d="M41.5724 68.1914H28.1439V61.2791H63.9746V68.1914H50.546V105.266H41.5724V68.1914Z" fill="black"/>
<path d="M86.3722 95.0235H68.9342L65.943 105.266H56.9694L67.8523 70.2022C68.616 67.6886 69.4221 65.7407 70.2707 64.3582C71.1193 62.9757 72.1163 61.9913 73.2619 61.4048C74.4499 60.8183 75.9137 60.525 77.6532 60.525C79.3928 60.525 80.8353 60.8183 81.9809 61.4048C83.1265 61.9913 84.1235 62.9757 84.9721 64.3582C85.8631 65.7407 86.6904 67.6886 87.4542 70.2022L98.337 105.266H89.3634L86.3722 95.0235ZM84.3993 88.4254L79.0533 70.3279C78.7564 69.2387 78.2896 68.6941 77.6532 68.6941C77.0168 68.6941 76.5501 69.2387 76.2531 70.3279L70.9071 88.4254H84.3993Z" fill="black"/>
<path d="M101.865 61.2791H119.875C125.306 61.2791 129.316 62.4311 131.904 64.7352C134.492 66.9974 135.786 70.5164 135.786 75.2921C135.786 80.0679 134.492 83.6078 131.904 85.9119C129.316 88.1741 125.306 89.3052 119.875 89.3052H110.838V105.266H101.865V61.2791ZM120.13 82.3929C122.082 82.3929 123.673 81.8064 124.903 80.6334C126.176 79.4604 126.813 77.68 126.813 75.2921C126.813 72.9043 126.176 71.1238 124.903 69.9508C123.673 68.7779 122.082 68.1914 120.13 68.1914H110.838V82.3929H120.13Z" fill="black"/>
<path d="M28.4047 34.0989H36.4156C38.8394 34.0989 40.7496 34.4437 42.1464 35.1332C43.5637 35.8228 44.5805 36.9383 45.1967 38.4796C45.8335 40.0007 46.1518 42.0897 46.1518 44.7465C46.1518 47.4034 45.8335 49.5025 45.1967 51.0439C44.5805 52.565 43.5637 53.6703 42.1464 54.3599C40.7496 55.0494 38.8394 55.3942 36.4156 55.3942H28.4047V34.0989ZM36.4156 52.0478C37.7713 52.0478 38.8394 51.8146 39.6199 51.3481C40.4005 50.8816 40.9551 50.1211 41.2837 49.0665C41.6329 48.0118 41.8075 46.5719 41.8075 44.7465C41.8075 42.9212 41.6329 41.4813 41.2837 40.4266C40.9551 39.372 40.4005 38.6115 39.6199 38.145C38.8394 37.6785 37.7713 37.4453 36.4156 37.4453H32.7491V52.0478H36.4156Z" fill="black"/>
<path d="M56.6565 55.7593C53.8013 55.7593 51.6137 55.1103 50.0937 53.8123C48.5943 52.494 47.8445 50.5571 47.8445 48.0017V41.4914C47.8445 38.936 48.5943 37.0092 50.0937 35.7112C51.6137 34.393 53.8013 33.7338 56.6565 33.7338C59.5116 33.7338 61.6889 34.393 63.1884 35.7112C64.7084 37.0092 65.4684 38.936 65.4684 41.4914V48.0017C65.4684 50.5571 64.7084 52.494 63.1884 53.8123C61.6889 55.1103 59.5116 55.7593 56.6565 55.7593ZM56.6565 52.4129C58.0943 52.4129 59.1933 52.0377 59.9533 51.2873C60.7338 50.5166 61.1241 49.4214 61.1241 48.0017V41.4914C61.1241 40.0717 60.7338 38.9867 59.9533 38.2363C59.1933 37.4656 58.0943 37.0802 56.6565 37.0802C55.2186 37.0802 54.1094 37.4656 53.3289 38.2363C52.5689 38.9867 52.1889 40.0717 52.1889 41.4914V48.0017C52.1889 49.4214 52.5689 50.5166 53.3289 51.2873C54.1094 52.0377 55.2186 52.4129 56.6565 52.4129Z" fill="black"/>
<path d="M75.9947 55.7897C73.1806 55.7897 71.0547 55.2015 69.6168 54.0252C68.179 52.8286 67.4601 51.1757 67.4601 49.0665V34.0989H71.8044V49.0665C71.8044 51.3177 73.2012 52.4433 75.9947 52.4433C78.7883 52.4433 80.185 51.3177 80.185 49.0665V34.0989H84.5294V49.0665C84.5294 51.1757 83.8105 52.8286 82.3726 54.0252C80.9348 55.2015 78.8088 55.7897 75.9947 55.7897Z" fill="black"/>
<path d="M87.4511 34.0989H96.9409C99.2004 34.0989 100.926 34.5856 102.117 35.5591C103.329 36.5326 103.935 37.9422 103.935 39.7878C103.935 40.8018 103.627 41.7145 103.011 42.5257C102.394 43.337 101.501 43.8947 100.33 44.1989C101.604 44.4423 102.631 45.0305 103.411 45.9634C104.192 46.8761 104.582 48.0727 104.582 49.5532C104.582 51.3582 103.935 52.7881 102.641 53.8427C101.367 54.877 99.6215 55.3942 97.4031 55.3942H87.4511V34.0989ZM96.8485 42.6779C97.6701 42.6779 98.3274 42.4446 98.8204 41.9781C99.3339 41.4914 99.5907 40.8525 99.5907 40.0616C99.5907 39.2706 99.3339 38.6419 98.8204 38.1754C98.3274 37.6887 97.6701 37.4453 96.8485 37.4453H91.7955V42.6779H96.8485ZM96.4787 52.0478C97.7523 52.0478 98.6971 51.8044 99.3134 51.3177C99.9296 50.8106 100.238 50.0501 100.238 49.036C100.238 48.022 99.9296 47.2716 99.3134 46.7848C98.6971 46.2778 97.7523 46.0243 96.4787 46.0243H91.7955V52.0478H96.4787Z" fill="black"/>
<path d="M113.627 55.3942C110.997 55.3942 109.108 54.8263 107.957 53.6906C106.828 52.5548 106.263 50.9121 106.263 48.7622V34.0989H110.607V48.7622C110.607 49.8777 110.854 50.7092 111.347 51.2568C111.839 51.7841 112.599 52.0478 113.627 52.0478H120.528V55.3942H113.627Z" fill="black"/>
<path d="M128.757 55.3942C126.025 55.3942 124.064 54.8263 122.872 53.6906C121.681 52.5548 121.085 50.9121 121.085 48.7622V40.7309C121.085 38.581 121.681 36.9383 122.872 35.8025C124.064 34.6668 126.025 34.0989 128.757 34.0989H135.967V37.4453H128.757C127.628 37.4453 126.785 37.7089 126.231 38.2363C125.697 38.7636 125.43 39.5951 125.43 40.7309V43.0733H134.611V46.4197H125.43V48.7622C125.43 49.8777 125.697 50.7092 126.231 51.2568C126.785 51.7841 127.628 52.0478 128.757 52.0478H136.029V55.3942H128.757Z" fill="black"/>
</svg>
