<svg width="131" height="131" viewBox="0 0 131 131" fill="none" xmlns="http://www.w3.org/2000/svg">
<path d="M131 65.5C131 101.675 101.675 131 65.5 131C29.3254 131 0 101.675 0 65.5C0 29.3254 29.3254 0 65.5 0C101.675 0 131 29.3254 131 65.5Z" fill="white"/>
<path d="M30.959 55.8361C29.4356 55.8361 28.3418 55.5154 27.6775 54.874C27.0132 54.2326 26.681 53.3048 26.681 52.0908V47.5551C26.681 46.3411 27.0132 45.4133 27.6775 44.7719C28.3418 44.1305 29.4356 43.8098 30.959 43.8098H34.9791V45.6997H30.959C30.329 45.6997 29.8594 45.8486 29.5502 46.1464C29.2524 46.4442 29.1035 46.9137 29.1035 47.5551V48.878H34.2232V50.7679H29.1035V52.0908C29.1035 52.7207 29.2524 53.1903 29.5502 53.4995C29.8594 53.7973 30.329 53.9462 30.959 53.9462H35.0135V55.8361H30.959Z" fill="black"/>
<path d="M43.0409 53.0357H38.3335L37.526 55.8361H35.1036L38.0414 46.2494C38.2476 45.5622 38.4652 45.0296 38.6943 44.6517C38.9233 44.2737 39.1925 44.0045 39.5017 43.8442C39.8224 43.6838 40.2176 43.6037 40.6872 43.6037C41.1568 43.6037 41.5462 43.6838 41.8554 43.8442C42.1647 44.0045 42.4338 44.2737 42.6629 44.6517C42.9034 45.0296 43.1268 45.5622 43.3329 46.2494L46.2708 55.8361H43.8484L43.0409 53.0357ZM42.5083 51.2317L41.0651 46.2838C40.985 45.986 40.859 45.8371 40.6872 45.8371C40.5154 45.8371 40.3894 45.986 40.3092 46.2838L38.8661 51.2317H42.5083Z" fill="black"/>
<path d="M56.9643 55.8361H54.4045L53.6142 53.1731C53.4538 52.6233 53.2935 52.1996 53.1331 51.9018C52.9728 51.5925 52.7551 51.3577 52.4803 51.1974C52.2054 51.037 51.8389 50.9569 51.3807 50.9569H49.6455V55.8361H47.2231V43.8098H52.0851C53.5512 43.8098 54.6335 44.1019 55.3322 44.686C56.0309 45.2587 56.3802 46.1578 56.3802 47.3833C56.3802 48.1736 56.1683 48.8093 55.7445 49.2904C55.3322 49.7714 54.7595 50.0807 54.0265 50.2181C54.6106 50.4128 55.0516 50.7507 55.3494 51.2317C55.6472 51.7128 55.9221 52.3656 56.174 53.1903L56.9643 55.8361ZM52.1538 49.067C52.6807 49.067 53.1102 48.9296 53.4424 48.6547C53.786 48.3684 53.9578 47.9446 53.9578 47.3833C53.9578 46.8221 53.786 46.4041 53.4424 46.1292C53.1102 45.8428 52.6807 45.6997 52.1538 45.6997H49.6455V49.067H52.1538Z" fill="black"/>
<path d="M67.9708 43.8098V53.0013C67.9708 53.9291 67.7818 54.6334 67.4038 55.1145C67.0258 55.5955 66.4188 55.8361 65.5827 55.8361H63.8818L60.3427 47.6411V55.8361H58.0749V43.8098H60.8066L65.1704 53.7744H65.2047C65.3994 53.7744 65.5311 53.6943 65.5999 53.5339C65.6686 53.3621 65.7029 53.0586 65.7029 52.6233V43.8098H67.9708Z" fill="black"/>
<path d="M31.0105 73.2226C30.1858 73.2226 29.4929 73.1309 28.9317 72.9477C28.3819 72.7644 27.918 72.5124 27.5401 72.1917C27.1621 71.871 26.7727 71.4415 26.3718 70.9032L28.0039 69.546C28.4735 70.1988 28.9259 70.6627 29.3612 70.9376C29.8079 71.201 30.3576 71.3327 31.0105 71.3327C31.9153 71.3327 32.5739 71.201 32.9862 70.9376C33.3986 70.6741 33.6047 70.2504 33.6047 69.6662C33.6047 69.3684 33.5074 69.1279 33.3127 68.9447C33.1179 68.7499 32.7801 68.5724 32.299 68.4121C31.8294 68.2517 31.125 68.0742 30.1858 67.8795C29.0863 67.6504 28.2674 67.2438 27.729 66.6597C27.2022 66.0641 26.9388 65.2738 26.9388 64.2888C26.9388 63.5787 27.1163 62.9602 27.4713 62.4333C27.8379 61.9064 28.3533 61.4998 29.0176 61.2135C29.6819 60.9272 30.455 60.784 31.3369 60.784C32.4823 60.784 33.3928 60.9558 34.0686 61.2994C34.7444 61.6316 35.2941 62.1241 35.7179 62.7769L34.1201 64.0826C33.7651 63.7276 33.4673 63.4584 33.2268 63.2752C32.9977 63.0804 32.7343 62.9315 32.4365 62.8285C32.1387 62.7254 31.7722 62.6738 31.3369 62.6738C30.6841 62.6738 30.1916 62.817 29.8594 63.1033C29.5273 63.3897 29.3612 63.802 29.3612 64.3403C29.3612 64.8443 29.5731 65.2165 29.9969 65.4571C30.4206 65.6861 30.9647 65.8751 31.629 66.024C32.614 66.2302 33.3986 66.4421 33.9827 66.6597C34.5668 66.8773 35.0536 67.2266 35.443 67.7077C35.8324 68.1887 36.0272 68.8473 36.0272 69.6834C36.0272 70.8746 35.6091 71.7622 34.773 72.3464C33.9483 72.9305 32.6942 73.2226 31.0105 73.2226Z" fill="black"/>
<path d="M37.2605 60.9902H42.1225C43.5886 60.9902 44.671 61.3051 45.3696 61.9351C46.0683 62.5536 46.4176 63.5157 46.4176 64.8214C46.4176 66.1271 46.0683 67.0949 45.3696 67.7249C44.671 68.3433 43.5886 68.6526 42.1225 68.6526H39.6829V73.0164H37.2605V60.9902ZM42.1913 66.7628C42.7181 66.7628 43.1476 66.6024 43.4798 66.2817C43.8234 65.961 43.9952 65.4742 43.9952 64.8214C43.9952 64.1685 43.8234 63.6817 43.4798 63.3611C43.1476 63.0404 42.7181 62.88 42.1913 62.88H39.6829V66.7628H42.1913Z" fill="black"/>
<path d="M51.7555 73.2226C50.1634 73.2226 48.9436 72.856 48.0961 72.123C47.2599 71.3785 46.8419 70.2847 46.8419 68.8416V65.165C46.8419 63.7218 47.2599 62.6337 48.0961 61.9007C48.9436 61.1562 50.1634 60.784 51.7555 60.784C53.3475 60.784 54.5616 61.1562 55.3977 61.9007C56.2453 62.6337 56.669 63.7218 56.669 65.165V68.8416C56.669 70.2847 56.2453 71.3785 55.3977 72.123C54.5616 72.856 53.3475 73.2226 51.7555 73.2226ZM51.7555 71.3327C52.5572 71.3327 53.17 71.1208 53.5938 70.697C54.029 70.2618 54.2466 69.6433 54.2466 68.8416V65.165C54.2466 64.3632 54.029 63.7505 53.5938 63.3267C53.17 62.8915 52.5572 62.6738 51.7555 62.6738C50.9537 62.6738 50.3352 62.8915 49.9 63.3267C49.4762 63.7505 49.2643 64.3632 49.2643 65.165V68.8416C49.2643 69.6433 49.4762 70.2618 49.9 70.697C50.3352 71.1208 50.9537 71.3327 51.7555 71.3327Z" fill="black"/>
<path d="M68.105 60.9902V70.1816C68.105 71.1094 67.916 71.8138 67.538 72.2948C67.1601 72.7759 66.553 73.0164 65.7169 73.0164H64.0161L60.4769 64.8214V73.0164H58.2091V60.9902H60.9408L65.3046 70.9548H65.3389C65.5336 70.9548 65.6654 70.8746 65.7341 70.7142C65.8028 70.5424 65.8372 70.2389 65.8372 69.8037V60.9902H68.105Z" fill="black"/>
<path d="M73.7466 73.2226C72.9219 73.2226 72.229 73.1309 71.6677 72.9477C71.118 72.7644 70.6541 72.5124 70.2761 72.1917C69.8982 71.871 69.5087 71.4415 69.1079 70.9032L70.74 69.546C71.2096 70.1988 71.662 70.6627 72.0972 70.9376C72.5439 71.201 73.0937 71.3327 73.7466 71.3327C74.6514 71.3327 75.31 71.201 75.7223 70.9376C76.1346 70.6741 76.3408 70.2504 76.3408 69.6662C76.3408 69.3684 76.2434 69.1279 76.0487 68.9447C75.854 68.7499 75.5161 68.5724 75.0351 68.4121C74.5655 68.2517 73.8611 68.0742 72.9219 67.8795C71.8224 67.6504 71.0034 67.2438 70.4651 66.6597C69.9383 66.0641 69.6748 65.2738 69.6748 64.2888C69.6748 63.5787 69.8524 62.9602 70.2074 62.4333C70.5739 61.9064 71.0893 61.4998 71.7536 61.2135C72.4179 60.9272 73.1911 60.784 74.073 60.784C75.2183 60.784 76.1289 60.9558 76.8047 61.2994C77.4804 61.6316 78.0302 62.1241 78.454 62.7769L76.8562 64.0826C76.5011 63.7276 76.2033 63.4584 75.9628 63.2752C75.7338 63.0804 75.4703 62.9315 75.1725 62.8285C74.8747 62.7254 74.5082 62.6738 74.073 62.6738C73.4201 62.6738 72.9276 62.817 72.5955 63.1033C72.2633 63.3897 72.0972 63.802 72.0972 64.3403C72.0972 64.8443 72.3091 65.2165 72.7329 65.4571C73.1567 65.6861 73.7007 65.8751 74.365 66.024C75.3501 66.2302 76.1346 66.4421 76.7188 66.6597C77.3029 66.8773 77.7897 67.2266 78.1791 67.7077C78.5685 68.1887 78.7632 68.8473 78.7632 69.6834C78.7632 70.8746 78.3452 71.7622 77.509 72.3464C76.6844 72.9305 75.4302 73.2226 73.7466 73.2226Z" fill="black"/>
<path d="M84.227 73.2226C82.6349 73.2226 81.4151 72.856 80.5675 72.123C79.7314 71.3785 79.3134 70.2847 79.3134 68.8416V65.165C79.3134 63.7218 79.7314 62.6337 80.5675 61.9007C81.4151 61.1562 82.6349 60.784 84.227 60.784C85.819 60.784 87.0331 61.1562 87.8692 61.9007C88.7168 62.6337 89.1405 63.7218 89.1405 65.165V68.8416C89.1405 70.2847 88.7168 71.3785 87.8692 72.123C87.0331 72.856 85.819 73.2226 84.227 73.2226ZM84.227 71.3327C85.0287 71.3327 85.6415 71.1208 86.0653 70.697C86.5005 70.2618 86.7181 69.6433 86.7181 68.8416V65.165C86.7181 64.3632 86.5005 63.7505 86.0653 63.3267C85.6415 62.8915 85.0287 62.6738 84.227 62.6738C83.4252 62.6738 82.8067 62.8915 82.3715 63.3267C81.9477 63.7505 81.7358 64.3632 81.7358 65.165V68.8416C81.7358 69.6433 81.9477 70.2618 82.3715 70.697C82.8067 71.1208 83.4252 71.3327 84.227 71.3327Z" fill="black"/>
<path d="M100.422 73.0164H97.862L97.0717 70.3534C96.9113 69.8037 96.751 69.3799 96.5906 69.0821C96.4303 68.7729 96.2127 68.5381 95.9378 68.3777C95.6629 68.2174 95.2964 68.1372 94.8382 68.1372H93.103V73.0164H90.6806V60.9902H95.5426C97.0087 60.9902 98.091 61.2822 98.7897 61.8664C99.4884 62.439 99.8377 63.3381 99.8377 64.5637C99.8377 65.354 99.6258 65.9896 99.202 66.4707C98.7897 66.9517 98.217 67.261 97.484 67.3984C98.0681 67.5931 98.5091 67.931 98.8069 68.4121C99.1047 68.8931 99.3796 69.546 99.6315 70.3706L100.422 73.0164ZM95.6113 66.2473C96.1382 66.2473 96.5677 66.1099 96.8999 65.835C97.2435 65.5487 97.4153 65.1249 97.4153 64.5637C97.4153 64.0024 97.2435 63.5844 96.8999 63.3095C96.5677 63.0232 96.1382 62.88 95.6113 62.88H93.103V66.2473H95.6113Z" fill="black"/>
<path d="M36.9721 90.1967H34.4122L33.6219 87.5338C33.4616 86.984 33.3012 86.5602 33.1409 86.2624C32.9805 85.9532 32.7629 85.7184 32.488 85.558C32.2131 85.3977 31.8466 85.3175 31.3885 85.3175H29.6532V90.1967H27.2308V78.1705H32.0929C33.5589 78.1705 34.6413 78.4626 35.3399 79.0467C36.0386 79.6194 36.3879 80.5185 36.3879 81.744C36.3879 82.5343 36.176 83.17 35.7523 83.651C35.3399 84.1321 34.7673 84.4413 34.0342 84.5788C34.6184 84.7735 35.0593 85.1113 35.3571 85.5924C35.6549 86.0734 35.9298 86.7263 36.1818 87.551L36.9721 90.1967ZM32.1616 83.4277C32.6884 83.4277 33.1179 83.2902 33.4501 83.0153C33.7937 82.729 33.9655 82.3052 33.9655 81.744C33.9655 81.1828 33.7937 80.7647 33.4501 80.4898C33.1179 80.2035 32.6884 80.0603 32.1616 80.0603H29.6532V83.4277H32.1616Z" fill="black"/>
<path d="M41.8107 90.1967C40.2874 90.1967 39.1936 89.876 38.5293 89.2346C37.865 88.5932 37.5328 87.6655 37.5328 86.4514V81.9158C37.5328 80.7017 37.865 79.774 38.5293 79.1326C39.1936 78.4912 40.2874 78.1705 41.8107 78.1705H45.8309V80.0603H41.8107C41.1808 80.0603 40.7112 80.2092 40.402 80.507C40.1042 80.8048 39.9553 81.2744 39.9553 81.9158V83.2387H45.075V85.1285H39.9553V86.4514C39.9553 87.0814 40.1042 87.551 40.402 87.8602C40.7112 88.158 41.1808 88.3069 41.8107 88.3069H45.8653V90.1967H41.8107Z" fill="black"/>
<path d="M61.0741 78.1705L58.3252 90.1967H57.6552C56.9909 90.1967 56.464 90.1166 56.0746 89.9562C55.6966 89.7959 55.3816 89.5267 55.1297 89.1487C54.8777 88.7708 54.6257 88.2038 54.3737 87.4479L53.5319 84.9395L52.7072 87.4479C52.4667 88.1809 52.2147 88.7421 51.9513 89.1315C51.6879 89.521 51.3614 89.7959 50.972 89.9562C50.5826 90.1166 50.0672 90.1967 49.4258 90.1967H48.7558L46.0069 78.1705H48.2747L50.4566 87.8258C50.5597 87.6998 50.6742 87.4593 50.8002 87.1043L53.5319 79.4418L56.2807 87.1043C56.4067 87.4593 56.5213 87.6998 56.6243 87.8258L58.8063 78.1705H61.0741Z" fill="black"/>
<path d="M67.8651 87.3963H63.1577L62.3502 90.1967H59.9278L62.8656 80.6101C63.0718 79.9229 63.2894 79.3903 63.5185 79.0123C63.7476 78.6344 64.0167 78.3652 64.326 78.2049C64.6467 78.0445 65.0418 77.9643 65.5114 77.9643C65.981 77.9643 66.3704 78.0445 66.6797 78.2049C66.9889 78.3652 67.2581 78.6344 67.4871 79.0123C67.7277 79.3903 67.951 79.9229 68.1572 80.6101L71.095 90.1967H68.6726L67.8651 87.3963ZM67.3325 85.5924L65.8894 80.6445C65.8092 80.3467 65.6832 80.1978 65.5114 80.1978C65.3396 80.1978 65.2136 80.3467 65.1334 80.6445L63.6903 85.5924H67.3325Z" fill="black"/>
<path d="M81.7886 90.1967H79.2287L78.4384 87.5338C78.278 86.984 78.1177 86.5602 77.9574 86.2624C77.797 85.9532 77.5794 85.7184 77.3045 85.558C77.0296 85.3977 76.6631 85.3175 76.205 85.3175H74.4697V90.1967H72.0473V78.1705H76.9094C78.3754 78.1705 79.4578 78.4626 80.1564 79.0467C80.8551 79.6194 81.2044 80.5185 81.2044 81.744C81.2044 82.5343 80.9925 83.17 80.5688 83.651C80.1564 84.1321 79.5838 84.4413 78.8507 84.5788C79.4349 84.7735 79.8758 85.1113 80.1736 85.5924C80.4714 86.0734 80.7463 86.7263 80.9983 87.551L81.7886 90.1967ZM76.9781 83.4277C77.5049 83.4277 77.9344 83.2902 78.2666 83.0153C78.6102 82.729 78.782 82.3052 78.782 81.744C78.782 81.1828 78.6102 80.7647 78.2666 80.4898C77.9344 80.2035 77.5049 80.0603 76.9781 80.0603H74.4697V83.4277H76.9781Z" fill="black"/>
<path d="M82.8991 78.1705H87.366C88.7175 78.1705 89.7827 78.3652 90.5615 78.7546C91.3518 79.144 91.9188 79.774 92.2624 80.6445C92.6175 81.5035 92.795 82.6832 92.795 84.1836C92.795 85.684 92.6175 86.8695 92.2624 87.7399C91.9188 88.599 91.3518 89.2232 90.5615 89.6126C89.7827 90.002 88.7175 90.1967 87.366 90.1967H82.8991V78.1705ZM87.366 88.3069C88.1219 88.3069 88.7175 88.1752 89.1527 87.9117C89.588 87.6483 89.8972 87.2188 90.0805 86.6232C90.2752 86.0276 90.3726 85.2144 90.3726 84.1836C90.3726 83.1528 90.2752 82.3396 90.0805 81.744C89.8972 81.1484 89.588 80.7189 89.1527 80.4555C88.7175 80.192 88.1219 80.0603 87.366 80.0603H85.3215V88.3069H87.366Z" fill="black"/>
<path d="M98.0339 90.4029C97.2093 90.4029 96.5163 90.3113 95.9551 90.128C95.4053 89.9447 94.9414 89.6928 94.5635 89.3721C94.1855 89.0514 93.7961 88.6219 93.3952 88.0835L95.0273 86.7263C95.4969 87.3791 95.9494 87.843 96.3846 88.1179C96.8313 88.3813 97.3811 88.5131 98.0339 88.5131C98.9387 88.5131 99.5973 88.3813 100.01 88.1179C100.422 87.8545 100.628 87.4307 100.628 86.8466C100.628 86.5488 100.531 86.3082 100.336 86.125C100.141 85.9303 99.8035 85.7527 99.3224 85.5924C98.8528 85.432 98.1484 85.2545 97.2093 85.0598C96.1097 84.8307 95.2908 84.4241 94.7525 83.84C94.2256 83.2444 93.9622 82.4541 93.9622 81.4691C93.9622 80.759 94.1397 80.1405 94.4948 79.6136C94.8613 79.0868 95.3767 78.6802 96.041 78.3938C96.7053 78.1075 97.4784 77.9643 98.3603 77.9643C99.5057 77.9643 100.416 78.1361 101.092 78.4797C101.768 78.8119 102.318 79.3044 102.741 79.9572L101.144 81.263C100.788 80.9079 100.491 80.6387 100.25 80.4555C100.021 80.2608 99.7577 80.1119 99.4599 80.0088C99.1621 79.9057 98.7956 79.8542 98.3603 79.8542C97.7075 79.8542 97.215 79.9973 96.8828 80.2837C96.5507 80.57 96.3846 80.9823 96.3846 81.5207C96.3846 82.0246 96.5965 82.3969 97.0203 82.6374C97.4441 82.8664 97.9881 83.0554 98.6524 83.2043C99.6374 83.4105 100.422 83.6224 101.006 83.84C101.59 84.0576 102.077 84.407 102.466 84.888C102.856 85.3691 103.051 86.0276 103.051 86.8637C103.051 88.0549 102.633 88.9426 101.796 89.5267C100.972 90.1108 99.7176 90.4029 98.0339 90.4029Z" fill="black"/>
<path d="M102.076 26.5954L93.174 36.482L99.8258 48.0033L87.6723 42.5922L78.7704 52.4788L80.161 39.248L68.0075 33.8369L81.0205 31.0709L82.4111 17.8401L89.0629 29.3614L102.076 26.5954Z" fill="black"/>
</svg>
