<svg width="88" height="88" viewBox="0 0 88 88" fill="none" xmlns="http://www.w3.org/2000/svg">
<path d="M88 44C88 68.3005 68.3005 88 44 88C19.6995 88 0 68.3005 0 44C0 19.6995 19.6995 0 44 0C68.3005 0 88 19.6995 88 44Z" fill="white"/>
<path d="M21.2816 34.7614C20.1967 34.7614 19.3696 34.5152 18.8003 34.0228C18.2309 33.5227 17.9462 32.7879 17.9462 31.8185V29.3487C17.9462 28.3793 18.2309 27.6483 18.8003 27.1559C19.3696 26.6558 20.1967 26.4058 21.2816 26.4058C22.0356 26.4058 22.6511 26.5327 23.1281 26.7866C23.6129 27.0328 23.9976 27.406 24.2822 27.9061L23.1166 28.714C22.8781 28.3447 22.628 28.0792 22.3664 27.9176C22.1125 27.7561 21.7509 27.6753 21.2816 27.6753C20.6891 27.6753 20.2544 27.8176 19.9774 28.1023C19.7082 28.3793 19.5735 28.7948 19.5735 29.3487V31.8185C19.5735 32.3725 19.7082 32.7918 19.9774 33.0765C20.2544 33.3534 20.6891 33.4919 21.2816 33.4919C21.7894 33.4919 22.1818 33.4073 22.4588 33.238C22.7434 33.0611 22.9973 32.7802 23.2205 32.3955L24.3746 33.2496C24.1284 33.6035 23.8744 33.8882 23.6129 34.1036C23.3513 34.319 23.032 34.4845 22.655 34.5999C22.2856 34.7076 21.8278 34.7614 21.2816 34.7614Z" fill="black"/>
<path d="M28.0183 34.7614C26.9488 34.7614 26.1294 34.5152 25.56 34.0228C24.9984 33.5227 24.7175 32.7879 24.7175 31.8185V29.3487C24.7175 28.3793 24.9984 27.6483 25.56 27.1559C26.1294 26.6558 26.9488 26.4058 28.0183 26.4058C29.0877 26.4058 29.9033 26.6558 30.4649 27.1559C31.0343 27.6483 31.319 28.3793 31.319 29.3487V31.8185C31.319 32.7879 31.0343 33.5227 30.4649 34.0228C29.9033 34.5152 29.0877 34.7614 28.0183 34.7614ZM28.0183 33.4919C28.5568 33.4919 28.9685 33.3496 29.2531 33.0649C29.5455 32.7725 29.6917 32.3571 29.6917 31.8185V29.3487C29.6917 28.8101 29.5455 28.3985 29.2531 28.1138C28.9685 27.8215 28.5568 27.6753 28.0183 27.6753C27.4797 27.6753 27.0642 27.8215 26.7718 28.1138C26.4872 28.3985 26.3448 28.8101 26.3448 29.3487V31.8185C26.3448 32.3571 26.4872 32.7725 26.7718 33.0649C27.0642 33.3496 27.4797 33.4919 28.0183 33.4919Z" fill="black"/>
<path d="M32.3535 26.5443H33.196C33.6192 26.5443 33.9577 26.602 34.2116 26.7174C34.4655 26.8328 34.6848 27.0174 34.8695 27.2713C35.0541 27.5175 35.2695 27.8907 35.5158 28.3908L36.1851 29.7411L36.8545 28.3908C37.1007 27.8907 37.3161 27.5175 37.5008 27.2713C37.6855 27.0174 37.9047 26.8328 38.1586 26.7174C38.4125 26.602 38.7511 26.5443 39.1742 26.5443H40.0167V34.6229H38.5395V28.2408C38.4472 28.2408 38.3702 28.2831 38.3087 28.3677C38.2471 28.4524 38.1548 28.6024 38.0317 28.8178L36.1851 32.2455L34.3386 28.8178C34.2155 28.6024 34.1231 28.4524 34.0616 28.3677C34 28.2831 33.9231 28.2369 33.8308 28.2292V34.6229H32.3535V26.5443Z" fill="black"/>
<path d="M41.4015 26.5443H44.6676C45.6524 26.5443 46.3795 26.7558 46.8488 27.179C47.3182 27.5945 47.5528 28.2408 47.5528 29.1179C47.5528 29.995 47.3182 30.6452 46.8488 31.0683C46.3795 31.4838 45.6524 31.6915 44.6676 31.6915H43.0288V34.6229H41.4015V26.5443ZM44.7137 30.422C45.0677 30.422 45.3562 30.3143 45.5793 30.0989C45.8101 29.8835 45.9255 29.5565 45.9255 29.1179C45.9255 28.6793 45.8101 28.3523 45.5793 28.1369C45.3562 27.9215 45.0677 27.8138 44.7137 27.8138H43.0288V30.422H44.7137Z" fill="black"/>
<path d="M50.6884 34.6229C49.6651 34.6229 48.9304 34.4075 48.4841 33.9767C48.0379 33.5458 47.8147 32.9226 47.8147 32.107V29.0602C47.8147 28.2446 48.0379 27.6214 48.4841 27.1906C48.9304 26.7597 49.6651 26.5443 50.6884 26.5443H53.389V27.8138H50.6884C50.2653 27.8138 49.9498 27.9138 49.7421 28.1138C49.542 28.3139 49.442 28.6293 49.442 29.0602V29.9489H52.8812V31.2184H49.442V32.107C49.442 32.5302 49.542 32.8456 49.7421 33.0534C49.9498 33.2534 50.2653 33.3534 50.6884 33.3534H53.4121V34.6229H50.6884Z" fill="black"/>
<path d="M55.9078 27.8138H53.4726V26.5443H59.9702V27.8138H57.535V34.6229H55.9078V27.8138Z" fill="black"/>
<path d="M62.8786 34.6229C61.8553 34.6229 61.1205 34.4075 60.6743 33.9767C60.228 33.5458 60.0049 32.9226 60.0049 32.107V29.0602C60.0049 28.2446 60.228 27.6214 60.6743 27.1906C61.1205 26.7597 61.8553 26.5443 62.8786 26.5443H65.5792V27.8138H62.8786C62.4554 27.8138 62.14 27.9138 61.9323 28.1138C61.7322 28.3139 61.6322 28.6293 61.6322 29.0602V29.9489H65.0714V31.2184H61.6322V32.107C61.6322 32.5302 61.7322 32.8456 61.9323 33.0534C62.14 33.2534 62.4554 33.3534 62.8786 33.3534H65.6023V34.6229H62.8786Z" fill="black"/>
<path d="M27.6984 38.0852L25.8518 46.1639H25.4017C24.9555 46.1639 24.6015 46.1101 24.3399 46.0024C24.086 45.8946 23.8744 45.7138 23.7052 45.4599C23.5359 45.206 23.3666 44.8252 23.1974 44.3174L22.6319 42.6324L22.0779 44.3174C21.9163 44.8098 21.7471 45.1868 21.5701 45.4484C21.3931 45.71 21.1739 45.8946 20.9123 46.0024C20.6507 46.1101 20.3044 46.1639 19.8736 46.1639H19.4235L17.5769 38.0852H19.1003L20.566 44.5713C20.6353 44.4866 20.7122 44.3251 20.7969 44.0866L22.6319 38.9393L24.4784 44.0866C24.5631 44.3251 24.64 44.4866 24.7092 44.5713L26.175 38.0852H27.6984Z" fill="black"/>
<path d="M28.366 38.0852H29.9933V46.1639H28.366V38.0852Z" fill="black"/>
<path d="M33.058 39.3548H30.6228V38.0852H37.1204V39.3548H34.6853V46.1639H33.058V39.3548Z" fill="black"/>
<path d="M37.7498 38.0852H39.3771V41.4783H42.5163V38.0852H44.1435V46.1639H42.5163V42.7478H39.3771V46.1639H37.7498V38.0852Z" fill="black"/>
<path d="M21.3393 57.8434C20.239 57.8434 19.3965 57.5972 18.8118 57.1048C18.2348 56.6047 17.9462 55.8699 17.9462 54.9005V52.4307C17.9462 51.4612 18.2348 50.7303 18.8118 50.2379C19.3965 49.7378 20.239 49.4877 21.3393 49.4877C22.1318 49.4877 22.7781 49.6147 23.2782 49.8686C23.786 50.1225 24.1861 50.4995 24.4784 50.9996L23.2435 51.8421C23.005 51.4574 22.7511 51.1804 22.4818 51.0111C22.2125 50.8419 21.8317 50.7572 21.3393 50.7572C20.7238 50.7572 20.2737 50.8996 19.989 51.1843C19.712 51.4612 19.5735 51.8767 19.5735 52.4307V54.9005C19.5735 55.4544 19.712 55.8737 19.989 56.1584C20.2737 56.4354 20.7238 56.5739 21.3393 56.5739C21.8779 56.5739 22.2856 56.4854 22.5626 56.3085C22.8473 56.1238 22.9896 55.8584 22.9896 55.5121V55.1544C22.9896 54.6773 22.7704 54.4388 22.3318 54.4388H21.0161V53.1693H22.7934C23.409 53.1693 23.8629 53.3116 24.1553 53.5963C24.4476 53.881 24.5938 54.3234 24.5938 54.9235V55.6275C24.5938 56.32 24.3015 56.8624 23.7167 57.2548C23.132 57.6472 22.3395 57.8434 21.3393 57.8434Z" fill="black"/>
<path d="M29.9611 55.8237H26.7989L26.2565 57.7049H24.6292L26.6027 51.265C26.7412 50.8034 26.8874 50.4456 27.0412 50.1917C27.1951 49.9378 27.3759 49.757 27.5837 49.6493C27.7991 49.5416 28.0645 49.4877 28.38 49.4877C28.6955 49.4877 28.957 49.5416 29.1648 49.6493C29.3725 49.757 29.5533 49.9378 29.7072 50.1917C29.8688 50.4456 30.0188 50.8034 30.1573 51.265L32.1308 57.7049H30.5035L29.9611 55.8237ZM29.6033 54.6119L28.6339 51.2881C28.58 51.0881 28.4954 50.9881 28.38 50.9881C28.2646 50.9881 28.18 51.0881 28.1261 51.2881L27.1567 54.6119H29.6033Z" fill="black"/>
<path d="M39.4181 49.6262V55.8007C39.4181 56.4239 39.2912 56.8971 39.0373 57.2202C38.7834 57.5433 38.3756 57.7049 37.8139 57.7049H36.6714L34.2939 52.1999V57.7049H32.7705V49.6262H34.6055L37.537 56.32H37.56C37.6908 56.32 37.7793 56.2661 37.8255 56.1584C37.8716 56.043 37.8947 55.8391 37.8947 55.5468V49.6262H39.4181Z" fill="black"/>
<path d="M43.7157 57.8434C42.6155 57.8434 41.773 57.5972 41.1882 57.1048C40.6112 56.6047 40.3227 55.8699 40.3227 54.9005V52.4307C40.3227 51.4612 40.6112 50.7303 41.1882 50.2379C41.773 49.7378 42.6155 49.4877 43.7157 49.4877C44.5082 49.4877 45.1545 49.6147 45.6546 49.8686C46.1624 50.1225 46.5625 50.4995 46.8549 50.9996L45.62 51.8421C45.3815 51.4574 45.1276 51.1804 44.8583 51.0111C44.589 50.8419 44.2081 50.7572 43.7157 50.7572C43.1002 50.7572 42.6501 50.8996 42.3654 51.1843C42.0884 51.4612 41.9499 51.8767 41.9499 52.4307V54.9005C41.9499 55.4544 42.0884 55.8737 42.3654 56.1584C42.6501 56.4354 43.1002 56.5739 43.7157 56.5739C44.2543 56.5739 44.6621 56.4854 44.9391 56.3085C45.2237 56.1238 45.3661 55.8584 45.3661 55.5121V55.1544C45.3661 54.6773 45.1468 54.4388 44.7082 54.4388H43.3926V53.1693H45.1699C45.7854 53.1693 46.2393 53.3116 46.5317 53.5963C46.8241 53.881 46.9703 54.3234 46.9703 54.9235V55.6275C46.9703 56.32 46.6779 56.8624 46.0932 57.2548C45.5084 57.6472 44.7159 57.8434 43.7157 57.8434Z" fill="black"/>
<path d="M50.4075 57.8434C49.8535 57.8434 49.388 57.7819 49.011 57.6587C48.6417 57.5356 48.3301 57.3664 48.0762 57.151C47.8223 56.9355 47.5607 56.647 47.2914 56.2854L48.3878 55.3736C48.7033 55.8122 49.0072 56.1238 49.2996 56.3085C49.5996 56.4854 49.9689 56.5739 50.4075 56.5739C51.0153 56.5739 51.4577 56.4854 51.7347 56.3085C52.0117 56.1315 52.1502 55.8468 52.1502 55.4544C52.1502 55.2544 52.0848 55.0928 51.954 54.9697C51.8232 54.8389 51.5962 54.7196 51.2731 54.6119C50.9576 54.5042 50.4844 54.385 49.8535 54.2542C49.1149 54.1003 48.5648 53.8271 48.2032 53.4348C47.8492 53.0347 47.6723 52.5038 47.6723 51.8421C47.6723 51.3651 47.7915 50.9496 48.0301 50.5957C48.2763 50.2417 48.6225 49.9686 49.0687 49.7763C49.515 49.5839 50.0343 49.4877 50.6268 49.4877C51.3962 49.4877 52.0078 49.6031 52.4618 49.834C52.9157 50.0571 53.2851 50.3879 53.5697 50.8265L52.4964 51.7036C52.2579 51.4651 52.0579 51.2843 51.8963 51.1612C51.7424 51.0304 51.5654 50.9304 51.3654 50.8611C51.1654 50.7919 50.9192 50.7572 50.6268 50.7572C50.1882 50.7572 49.8574 50.8534 49.6343 51.0458C49.4111 51.2381 49.2996 51.5151 49.2996 51.8767C49.2996 52.2153 49.4419 52.4653 49.7266 52.6269C50.0113 52.7808 50.3767 52.9077 50.823 53.0077C51.4847 53.1462 52.0117 53.2886 52.4041 53.4348C52.7965 53.5809 53.1235 53.8156 53.3851 54.1388C53.6467 54.4619 53.7775 54.9043 53.7775 55.466C53.7775 56.2661 53.4966 56.8624 52.935 57.2548C52.381 57.6472 51.5385 57.8434 50.4075 57.8434Z" fill="black"/>
<path d="M65.5163 37.5413C65.4768 37.5603 65.4295 37.6029 65.4058 37.6392L65.3632 37.7023L65.3537 38.6253L65.2559 38.6348C65.2023 38.6395 65.0524 38.6506 64.9214 38.66C62.8449 38.8099 60.8426 39.7267 59.3294 41.2209C57.7484 42.783 56.8222 44.8137 56.6755 47.0338L56.6565 47.3225H56.24C55.7713 47.3225 55.7114 47.332 55.6293 47.4109C55.4952 47.5419 55.5284 47.7707 55.694 47.8527C55.7477 47.8795 55.7982 47.8827 56.2053 47.8874L56.6565 47.8921L56.6676 48.0846C56.7828 50.1027 57.5354 51.9631 58.8608 53.4999C59.0328 53.6987 59.4588 54.1279 59.675 54.3204C61.1834 55.6568 63.0532 56.4347 65.0792 56.5689C65.2102 56.5767 65.3253 56.5846 65.3364 56.5846C65.3506 56.5846 65.3553 56.684 65.3553 57.0296C65.3553 57.4304 65.3585 57.4824 65.3853 57.5408C65.48 57.7491 65.764 57.757 65.8792 57.555C65.9155 57.4935 65.9155 57.4824 65.9155 57.0391V56.5862L66.0496 56.5767C66.7186 56.531 67.0184 56.4915 67.5107 56.3858C69.6818 55.9235 71.5958 54.6738 72.9117 52.8624C73.7827 51.6648 74.3508 50.2305 74.5385 48.7584C74.5748 48.4728 74.6016 48.1509 74.6016 47.9994V47.8921L75.0718 47.8874C75.5294 47.8827 75.542 47.8811 75.5989 47.8464C75.7803 47.7328 75.7724 47.4535 75.5846 47.3604C75.531 47.3336 75.4789 47.3304 75.0639 47.3257L74.6016 47.321V47.2137C74.6016 47.1553 74.5937 47.0149 74.5859 46.9028C74.4328 44.9684 73.6675 43.157 72.3768 41.6817C70.8368 39.9192 68.5915 38.8036 66.2784 38.6522C66.2011 38.6474 66.0875 38.6395 66.0259 38.6348L65.9155 38.6269L65.9202 38.2451C65.9265 37.7954 65.9202 37.7228 65.865 37.6376C65.7877 37.5177 65.6409 37.4766 65.5163 37.5413ZM65.3553 40.8754V42.0004L65.2181 42.0114C63.4998 42.144 61.9582 43.037 60.9925 44.4571C60.5476 45.1119 60.2478 45.8472 60.1089 46.6283C60.0758 46.8176 60.0379 47.1411 60.0379 47.2389V47.3225H58.9097C58.0182 47.3225 57.7816 47.3178 57.7816 47.302C57.7816 47.2294 57.8178 46.8082 57.8384 46.6441C58.0971 44.5297 59.2143 42.6063 60.9278 41.3187C62.1854 40.3768 63.6717 39.8419 65.2607 39.7598C65.308 39.7567 65.349 39.7535 65.3522 39.7519C65.3537 39.7503 65.3553 40.2553 65.3553 40.8754ZM66.3099 39.7819C68.1624 39.9318 69.9264 40.7665 71.2502 42.1171C72.32 43.2106 73.0411 44.577 73.3378 46.0681C73.4151 46.4547 73.4813 46.9943 73.4813 47.231V47.3225H71.2439L71.2329 47.2152C71.1824 46.6535 71.1082 46.2906 70.9504 45.8157C70.2499 43.7171 68.347 42.215 66.1379 42.0193L65.9234 42.0004L65.9202 40.8801C65.917 40.2647 65.917 39.7614 65.9186 39.7598C65.9234 39.7551 66.1032 39.7645 66.3099 39.7819ZM65.3553 45.1609L65.3206 45.1672C65.3001 45.1719 65.2212 45.1877 65.1423 45.2019C64.8709 45.2524 64.5443 45.3849 64.2997 45.5443C63.7349 45.9119 63.3546 46.4768 63.2236 47.1458L63.1889 47.3225H61.1535L61.1661 47.1916C61.2387 46.3427 61.5795 45.4969 62.1239 44.809C62.2785 44.6149 62.6303 44.2599 62.815 44.1132C63.4209 43.6319 64.0962 43.3242 64.8346 43.1901C64.9924 43.1617 65.2038 43.1349 65.3206 43.127L65.3553 43.1254V45.1609ZM66.2784 43.1664C67.9194 43.3921 69.3347 44.5628 69.8759 46.1407C69.9927 46.48 70.0732 46.8539 70.1016 47.1758L70.1142 47.3225H68.074L68.0551 47.1947C67.962 46.5809 67.5722 45.9656 67.0452 45.5948C66.7754 45.407 66.4188 45.254 66.1143 45.1987C66.0385 45.1845 65.9644 45.1719 65.947 45.1687C65.9155 45.1624 65.9155 45.1514 65.9202 44.1431L65.9234 43.1238L66.0149 43.1333C66.0638 43.138 66.1837 43.1538 66.2784 43.1664ZM60.0379 47.9742C60.0379 48.072 60.0758 48.3955 60.1089 48.5848C60.4844 50.6944 62.0418 52.4206 64.093 52.9997C64.4859 53.1102 64.822 53.1717 65.2181 53.2017L65.3553 53.2127V55.458L65.2496 55.4533C63.7838 55.3839 62.3353 54.8884 61.1266 54.038C59.4052 52.8293 58.2265 50.9627 57.8857 48.9083C57.8415 48.6448 57.7816 48.0704 57.7816 47.9095C57.7816 47.8953 58.0182 47.8906 58.9097 47.8906H60.0379V47.9742ZM63.2236 48.0673C63.4177 49.0519 64.1893 49.8298 65.1502 50.0128C65.2244 50.027 65.3001 50.0412 65.3206 50.0459L65.3553 50.0523V51.07C65.3553 51.6301 65.3506 52.0877 65.3443 52.0877C65.1754 52.083 64.7762 52.0183 64.5191 51.952C63.2078 51.6159 62.1002 50.6881 61.5448 49.4574C61.346 49.0156 61.2055 48.487 61.1661 48.02L61.1535 47.8906H63.1889L63.2236 48.0673ZM70.1016 48.0357C70.0526 48.6038 69.8617 49.2302 69.5809 49.7446C69.0318 50.7497 68.1276 51.507 67.0484 51.8652C66.717 51.9757 66.4014 52.0404 66.0149 52.0782L65.9234 52.0877L65.9202 51.07C65.9155 50.0617 65.9155 50.0507 65.947 50.0444C65.9644 50.0412 66.0417 50.027 66.119 50.0128C66.777 49.8913 67.3908 49.4527 67.7505 48.8531C67.8957 48.6101 68.014 48.285 68.0551 48.0184L68.074 47.8906H70.1142L70.1016 48.0357ZM73.4813 47.9726C73.4813 48.0184 73.4735 48.1414 73.4656 48.2456C73.3031 50.1532 72.4904 51.8826 71.1287 53.2175C70.5008 53.8312 69.8428 54.2951 69.0554 54.677C68.3186 55.0352 67.5375 55.2734 66.7423 55.3839C66.3699 55.4359 65.9234 55.4691 65.9234 55.4438C65.9234 55.4375 65.9234 54.9326 65.9234 54.322V53.2127L66.1411 53.1938C66.3999 53.1701 66.7297 53.1149 66.9884 53.0518C68.8345 52.5974 70.3493 51.2009 70.9504 49.3974C71.1082 48.9225 71.1824 48.5596 71.2329 47.9963L71.2439 47.8906H73.4813V47.9726Z" fill="black"/>
</svg>
