<svg width="122" height="122" viewBox="0 0 122 122" fill="none" xmlns="http://www.w3.org/2000/svg">
<path d="M122 61C122 94.6894 94.6894 122 61 122C27.3106 122 0 94.6894 0 61C0 27.3106 27.3106 0 61 0C94.6894 0 122 27.3106 122 61Z" fill="white"/>
<path d="M38.36 40.8H42.888C44.2533 40.8 45.2613 41.0933 45.912 41.68C46.5627 42.256 46.888 43.152 46.888 44.368C46.888 45.584 46.5627 46.4853 45.912 47.072C45.2613 47.648 44.2533 47.936 42.888 47.936H40.616V52H38.36V40.8ZM42.952 46.176C43.4427 46.176 43.8427 46.0267 44.152 45.728C44.472 45.4293 44.632 44.976 44.632 44.368C44.632 43.76 44.472 43.3067 44.152 43.008C43.8427 42.7093 43.4427 42.56 42.952 42.56H40.616V46.176H42.952Z" fill="black"/>
<path d="M51.7951 52.208C50.3338 52.208 49.2298 51.8987 48.4831 51.28C47.7365 50.6507 47.3631 49.7813 47.3631 48.672V40.8H49.6191V48.672C49.6191 49.856 50.3445 50.448 51.7951 50.448C53.2458 50.448 53.9711 49.856 53.9711 48.672V40.8H56.2271V48.672C56.2271 49.7813 55.8538 50.6507 55.1071 51.28C54.3605 51.8987 53.2565 52.208 51.7951 52.208Z" fill="black"/>
<path d="M57.7444 40.8H58.9124C59.499 40.8 59.9684 40.88 60.3204 41.04C60.6724 41.2 60.9764 41.456 61.2324 41.808C61.4884 42.1493 61.787 42.6667 62.1284 43.36L63.0564 45.232L63.9844 43.36C64.3257 42.6667 64.6244 42.1493 64.8804 41.808C65.1364 41.456 65.4404 41.2 65.7924 41.04C66.1444 40.88 66.6137 40.8 67.2004 40.8H68.3684V52H66.3204V43.152C66.1924 43.152 66.0857 43.2107 66.0004 43.328C65.915 43.4453 65.787 43.6533 65.6164 43.952L63.0564 48.704L60.4964 43.952C60.3257 43.6533 60.1977 43.4453 60.1124 43.328C60.027 43.2107 59.9204 43.1467 59.7924 43.136V52H57.7444V40.8Z" fill="black"/>
<path d="M70.2881 40.8H74.8161C76.1815 40.8 77.1895 41.0933 77.8401 41.68C78.4908 42.256 78.8161 43.152 78.8161 44.368C78.8161 45.584 78.4908 46.4853 77.8401 47.072C77.1895 47.648 76.1815 47.936 74.8161 47.936H72.5441V52H70.2881V40.8ZM74.8801 46.176C75.3708 46.176 75.7708 46.0267 76.0801 45.728C76.4001 45.4293 76.5601 44.976 76.5601 44.368C76.5601 43.76 76.4001 43.3067 76.0801 43.008C75.7708 42.7093 75.3708 42.56 74.8801 42.56H72.5441V46.176H74.8801Z" fill="black"/>
<path d="M40.68 63.2L37 56.8H39.512L41.864 61.136L44.168 56.8H46.696L42.936 63.2V68H40.68V63.2Z" fill="black"/>
<path d="M50.7185 68.192C49.2358 68.192 48.0998 67.8507 47.3105 67.168C46.5318 66.4747 46.1425 65.456 46.1425 64.112V60.688C46.1425 59.344 46.5318 58.3307 47.3105 57.648C48.0998 56.9547 49.2358 56.608 50.7185 56.608C52.2012 56.608 53.3318 56.9547 54.1105 57.648C54.8998 58.3307 55.2945 59.344 55.2945 60.688V64.112C55.2945 65.456 54.8998 66.4747 54.1105 67.168C53.3318 67.8507 52.2012 68.192 50.7185 68.192ZM50.7185 66.432C51.4652 66.432 52.0358 66.2347 52.4305 65.84C52.8358 65.4347 53.0385 64.8587 53.0385 64.112V60.688C53.0385 59.9413 52.8358 59.3707 52.4305 58.976C52.0358 58.5707 51.4652 58.368 50.7185 58.368C49.9718 58.368 49.3958 58.5707 48.9905 58.976C48.5958 59.3707 48.3985 59.9413 48.3985 60.688V64.112C48.3985 64.8587 48.5958 65.4347 48.9905 65.84C49.3958 66.2347 49.9718 66.432 50.7185 66.432Z" fill="black"/>
<path d="M60.7607 68.208C59.2994 68.208 58.1954 67.8987 57.4487 67.28C56.7021 66.6507 56.3288 65.7813 56.3288 64.672V56.8H58.5848V64.672C58.5848 65.856 59.3101 66.448 60.7607 66.448C62.2114 66.448 62.9367 65.856 62.9367 64.672V56.8H65.1927V64.672C65.1927 65.7813 64.8194 66.6507 64.0728 67.28C63.3261 67.8987 62.2221 68.208 60.7607 68.208Z" fill="black"/>
<path d="M75.782 68H73.398L72.662 65.52C72.5127 65.008 72.3633 64.6133 72.214 64.336C72.0647 64.048 71.862 63.8293 71.606 63.68C71.35 63.5307 71.0087 63.456 70.582 63.456H68.966V68H66.71V56.8H71.238C72.6033 56.8 73.6113 57.072 74.262 57.616C74.9127 58.1493 75.238 58.9867 75.238 60.128C75.238 60.864 75.0407 61.456 74.646 61.904C74.262 62.352 73.7287 62.64 73.046 62.768C73.59 62.9493 74.0007 63.264 74.278 63.712C74.5553 64.16 74.8113 64.768 75.046 65.536L75.782 68ZM71.302 61.696C71.7927 61.696 72.1927 61.568 72.502 61.312C72.822 61.0453 72.982 60.6507 72.982 60.128C72.982 59.6053 72.822 59.216 72.502 58.96C72.1927 58.6933 71.7927 58.56 71.302 58.56H68.966V61.696H71.302Z" fill="black"/>
<path d="M40.696 74.56H37.32V72.8H46.328V74.56H42.952V84H40.696V74.56Z" fill="black"/>
<path d="M50.656 84.192C49.1733 84.192 48.0373 83.8507 47.248 83.168C46.4693 82.4747 46.08 81.456 46.08 80.112V76.688C46.08 75.344 46.4693 74.3307 47.248 73.648C48.0373 72.9547 49.1733 72.608 50.656 72.608C52.1387 72.608 53.2693 72.9547 54.048 73.648C54.8373 74.3307 55.232 75.344 55.232 76.688V80.112C55.232 81.456 54.8373 82.4747 54.048 83.168C53.2693 83.8507 52.1387 84.192 50.656 84.192ZM50.656 82.432C51.4027 82.432 51.9733 82.2347 52.368 81.84C52.7733 81.4347 52.976 80.8587 52.976 80.112V76.688C52.976 75.9413 52.7733 75.3707 52.368 74.976C51.9733 74.5707 51.4027 74.368 50.656 74.368C49.9093 74.368 49.3333 74.5707 48.928 74.976C48.5333 75.3707 48.336 75.9413 48.336 76.688V80.112C48.336 80.8587 48.5333 81.4347 48.928 81.84C49.3333 82.2347 49.9093 82.432 50.656 82.432Z" fill="black"/>
<path d="M62.0902 77.248C62.5596 77.3653 62.9489 77.552 63.2583 77.808C63.5676 78.0533 63.8343 78.3787 64.0583 78.784C64.2823 79.1787 64.5169 79.7227 64.7623 80.416L66.0423 84H63.7702L62.5542 80.64C62.4049 80.224 62.2662 79.9093 62.1382 79.696C62.0209 79.472 61.8503 79.2853 61.6263 79.136C61.4023 78.9867 61.0876 78.88 60.6823 78.816L58.9222 80.768V84H56.6662V72.8H58.9222V77.936L63.4502 72.8H66.1062L62.0902 77.248Z" fill="black"/>
<path d="M70.3539 84C68.9352 84 67.9165 83.7013 67.2979 83.104C66.6792 82.5067 66.3699 81.6427 66.3699 80.512V76.288C66.3699 75.1573 66.6792 74.2933 67.2979 73.696C67.9165 73.0987 68.9352 72.8 70.3539 72.8H74.0979V74.56H70.3539C69.7672 74.56 69.3299 74.6987 69.0419 74.976C68.7645 75.2533 68.6259 75.6907 68.6259 76.288V77.52H73.3939V79.28H68.6259V80.512C68.6259 81.0987 68.7645 81.536 69.0419 81.824C69.3299 82.1013 69.7672 82.24 70.3539 82.24H74.1299V84H70.3539Z" fill="black"/>
<path d="M84.4697 72.8V81.36C84.4697 82.224 84.2937 82.88 83.9417 83.328C83.5897 83.776 83.0244 84 82.2458 84H80.6618L77.3658 76.368V84H75.2537V72.8H77.7978L81.8617 82.08H81.8938C82.0751 82.08 82.1977 82.0053 82.2617 81.856C82.3257 81.696 82.3577 81.4133 82.3577 81.008V72.8H84.4697Z" fill="black"/>
<path d="M89.7237 84.192C88.9557 84.192 88.3104 84.1067 87.7878 83.936C87.2758 83.7653 86.8438 83.5307 86.4918 83.232C86.1398 82.9333 85.7771 82.5333 85.4037 82.032L86.9238 80.768C87.3611 81.376 87.7824 81.808 88.1878 82.064C88.6038 82.3093 89.1157 82.432 89.7237 82.432C90.5664 82.432 91.1798 82.3093 91.5638 82.064C91.9478 81.8187 92.1397 81.424 92.1397 80.88C92.1397 80.6027 92.0491 80.3787 91.8678 80.208C91.6864 80.0267 91.3718 79.8613 90.9238 79.712C90.4864 79.5627 89.8304 79.3973 88.9557 79.216C87.9317 79.0027 87.1691 78.624 86.6677 78.08C86.1771 77.5253 85.9317 76.7893 85.9317 75.872C85.9317 75.2107 86.0971 74.6347 86.4277 74.144C86.7691 73.6533 87.2491 73.2747 87.8678 73.008C88.4864 72.7413 89.2064 72.608 90.0277 72.608C91.0944 72.608 91.9424 72.768 92.5717 73.088C93.2011 73.3973 93.7131 73.856 94.1077 74.464L92.6198 75.68C92.2891 75.3493 92.0118 75.0987 91.7878 74.928C91.5744 74.7467 91.3291 74.608 91.0518 74.512C90.7744 74.416 90.4331 74.368 90.0277 74.368C89.4197 74.368 88.9611 74.5013 88.6517 74.768C88.3424 75.0347 88.1878 75.4187 88.1878 75.92C88.1878 76.3893 88.3851 76.736 88.7797 76.96C89.1744 77.1733 89.6811 77.3493 90.2998 77.488C91.2171 77.68 91.9478 77.8773 92.4918 78.08C93.0358 78.2827 93.4891 78.608 93.8518 79.056C94.2144 79.504 94.3958 80.1173 94.3958 80.896C94.3958 82.0053 94.0064 82.832 93.2278 83.376C92.4598 83.92 91.2917 84.192 89.7237 84.192Z" fill="black"/>
<path d="M26 41L32.0622 51.5H29.0003L26.5003 84H25.5003L23.0003 51.5H19.9378L26 41Z" fill="black"/>
</svg>
