<svg width="110" height="127" viewBox="0 0 110 127" fill="none" xmlns="http://www.w3.org/2000/svg">
<path d="M110 66.9997C55 127 85.3757 127 55 127C24.6243 127 55 127 0 66.9997C0 33.8624 24.6243 6.99931 55 6.99931C85.3757 6.99931 110 33.8624 110 66.9997Z" fill="url(#paint0_linear_421_1394)"/>
<path d="M34.3753 11.332C47.2183 4.48282 62.7824 4.48282 75.6253 11.332L74.3462 15.0531C66.0863 39.082 61.8754 64.2451 61.8754 89.5739C61.8754 90.5451 61.0634 91.3325 60.0618 91.3325H48.9733C47.5557 91.3325 46.4066 90.2182 46.4066 88.8436C46.4066 63.9623 42.7597 39.2074 35.5753 15.3214L34.3753 11.332Z" fill="url(#paint1_linear_421_1394)"/>
<path d="M110 60.8045C55 120.805 85.3757 120.805 55 120.805C24.6243 120.805 55 120.805 0 60.8045C0 27.6673 24.6243 0.804192 55 0.804192C85.3757 0.804192 110 27.6673 110 60.8045Z" fill="url(#paint2_linear_421_1394)"/>
<path d="M34.3753 5.1369C47.2183 -1.7123 62.7824 -1.7123 75.6253 5.1369L74.3462 8.85795C66.0863 32.8869 61.8754 58.05 61.8754 83.3787C61.8754 84.35 61.0634 85.1374 60.0618 85.1374H48.9733C47.5557 85.1374 46.4066 84.023 46.4066 82.6484C46.4066 57.7672 42.7597 33.0122 35.5753 9.12626L34.3753 5.1369Z" fill="url(#paint3_linear_421_1394)"/>
<defs>
<linearGradient id="paint0_linear_421_1394" x1="53.5116" y1="0" x2="53.5116" y2="64.3453" gradientUnits="userSpaceOnUse">
<stop stop-color="#097159"/>
<stop offset="1" stop-color="#01644D"/>
</linearGradient>
<linearGradient id="paint1_linear_421_1394" x1="54.998" y1="-11.9563" x2="54.998" y2="79.0435" gradientUnits="userSpaceOnUse">
<stop stop-color="#02B1AA"/>
<stop offset="1" stop-color="#014B48"/>
</linearGradient>
<linearGradient id="paint2_linear_421_1394" x1="53.5116" y1="0" x2="53.5116" y2="64.3453" gradientUnits="userSpaceOnUse">
<stop stop-color="#03E0AE"/>
<stop offset="1" stop-color="#30B596"/>
</linearGradient>
<linearGradient id="paint3_linear_421_1394" x1="54.998" y1="-11.9563" x2="54.998" y2="79.0435" gradientUnits="userSpaceOnUse">
<stop stop-color="#02B1AA"/>
<stop offset="1" stop-color="#014B48"/>
</linearGradient>
</defs>
</svg>
